<mxfile host="Electron" agent="Mozilla/5.0 (Windows NT 10.0; Win64; x64) AppleWebKit/537.36 (KHTML, like Gecko) draw.io/26.0.16 Chrome/132.0.6834.196 Electron/34.2.0 Safari/537.36" version="26.0.16">
  <diagram name="Pagină-1" id="8c-e17nSNL7fI000TE0y">
    <mxGraphModel dx="2927" dy="2427" grid="1" gridSize="10" guides="1" tooltips="1" connect="1" arrows="1" fold="1" page="1" pageScale="1" pageWidth="827" pageHeight="1169" math="0" shadow="0">
      <root>
        <mxCell id="0" />
        <mxCell id="1" parent="0" />
        <mxCell id="y1cTeartWdeg5HJ0a6VV-1" value="" style="ellipse;whiteSpace=wrap;html=1;fillColor=#dae8fc;strokeColor=#6c8ebf;" parent="1" vertex="1">
          <mxGeometry x="150" y="40" width="620" height="530" as="geometry" />
        </mxCell>
        <mxCell id="y1cTeartWdeg5HJ0a6VV-2" value="&lt;font style=&quot;font-size: 25px;&quot;&gt;Artificial Intelligence&lt;/font&gt;" style="text;html=1;align=center;verticalAlign=middle;whiteSpace=wrap;rounded=0;" parent="1" vertex="1">
          <mxGeometry x="370" y="55" width="230" height="30" as="geometry" />
        </mxCell>
        <mxCell id="y1cTeartWdeg5HJ0a6VV-3" value="" style="ellipse;whiteSpace=wrap;html=1;fillColor=#d5e8d4;strokeColor=#82b366;" parent="1" vertex="1">
          <mxGeometry x="200" y="100" width="530" height="470" as="geometry" />
        </mxCell>
        <mxCell id="y1cTeartWdeg5HJ0a6VV-4" value="&lt;font style=&quot;font-size: 25px;&quot;&gt;Machine Learning&lt;/font&gt;" style="text;html=1;align=center;verticalAlign=middle;whiteSpace=wrap;rounded=0;" parent="1" vertex="1">
          <mxGeometry x="390" y="185" width="210" height="20" as="geometry" />
        </mxCell>
        <mxCell id="y1cTeartWdeg5HJ0a6VV-5" value="" style="ellipse;whiteSpace=wrap;html=1;fillColor=#f8cecc;strokeColor=#b85450;" parent="1" vertex="1">
          <mxGeometry x="290" y="230" width="360" height="340" as="geometry" />
        </mxCell>
        <mxCell id="y1cTeartWdeg5HJ0a6VV-6" value="&lt;font style=&quot;font-size: 25px;&quot;&gt;Deep Learning&lt;/font&gt;" style="text;html=1;align=center;verticalAlign=middle;whiteSpace=wrap;rounded=0;" parent="1" vertex="1">
          <mxGeometry x="380" y="285" width="180" height="20" as="geometry" />
        </mxCell>
        <mxCell id="y1cTeartWdeg5HJ0a6VV-7" value="" style="ellipse;whiteSpace=wrap;html=1;fillColor=#fff2cc;strokeColor=#d6b656;" parent="1" vertex="1">
          <mxGeometry x="350" y="340" width="240" height="230" as="geometry" />
        </mxCell>
        <mxCell id="y1cTeartWdeg5HJ0a6VV-8" value="&lt;font style=&quot;font-size: 25px;&quot;&gt;Generative AI&lt;/font&gt;" style="text;html=1;align=center;verticalAlign=middle;whiteSpace=wrap;rounded=0;" parent="1" vertex="1">
          <mxGeometry x="380" y="430" width="180" height="20" as="geometry" />
        </mxCell>
        <mxCell id="y1cTeartWdeg5HJ0a6VV-9" value="Text" style="text;html=1;align=center;verticalAlign=middle;whiteSpace=wrap;rounded=0;" parent="1" vertex="1">
          <mxGeometry x="30" y="70" width="60" height="30" as="geometry" />
        </mxCell>
        <mxCell id="y1cTeartWdeg5HJ0a6VV-14" style="edgeStyle=orthogonalEdgeStyle;rounded=0;orthogonalLoop=1;jettySize=auto;html=1;exitX=1;exitY=0.5;exitDx=0;exitDy=0;" parent="1" source="y1cTeartWdeg5HJ0a6VV-10" target="y1cTeartWdeg5HJ0a6VV-2" edge="1">
          <mxGeometry relative="1" as="geometry" />
        </mxCell>
        <mxCell id="y1cTeartWdeg5HJ0a6VV-10" value="&lt;div style=&quot;text-align: justify;&quot;&gt;&lt;span style=&quot;background-color: transparent; color: light-dark(rgb(0, 0, 0), rgb(255, 255, 255));&quot;&gt;&lt;font style=&quot;font-size: 23px;&quot;&gt;&lt;span style=&quot;white-space: pre;&quot;&gt;&#x9;&lt;/span&gt;&lt;b style=&quot;&quot;&gt;Inteligența artificială (IA)&lt;/b&gt; este un domeniu al informaticii care se ocupă cu dezvoltarea de sisteme capabile să îndeplinească sarcini care, în mod normal, necesită inteligență umană. Aceste sarcini includ învățarea, raționamentul, recunoașterea modelelor, înțelegerea limbajului natural, percepția vizuală și luarea deciziilor.&lt;/font&gt;&lt;/span&gt;&lt;/div&gt;" style="rounded=0;whiteSpace=wrap;html=1;fillColor=#dae8fc;strokeColor=#6c8ebf;" parent="1" vertex="1">
          <mxGeometry x="-560" y="-6.25" width="710" height="152.5" as="geometry" />
        </mxCell>
        <mxCell id="y1cTeartWdeg5HJ0a6VV-15" style="edgeStyle=orthogonalEdgeStyle;rounded=0;orthogonalLoop=1;jettySize=auto;html=1;entryX=0;entryY=0.5;entryDx=0;entryDy=0;" parent="1" source="y1cTeartWdeg5HJ0a6VV-11" target="y1cTeartWdeg5HJ0a6VV-4" edge="1">
          <mxGeometry relative="1" as="geometry" />
        </mxCell>
        <mxCell id="y1cTeartWdeg5HJ0a6VV-11" value="&lt;div style=&quot;text-align: justify;&quot;&gt;&lt;font style=&quot;font-size: 23px;&quot;&gt;Sisteme care învață din date fără a fi explicit programate.&lt;/font&gt;&lt;/div&gt;&lt;div style=&quot;text-align: justify;&quot;&gt;&lt;font style=&quot;font-size: 23px;&quot;&gt;Supervised/Unsupervised/Reinforcement Learning&lt;/font&gt;&lt;/div&gt;" style="rounded=0;whiteSpace=wrap;html=1;fillColor=#d5e8d4;strokeColor=#82b366;" parent="1" vertex="1">
          <mxGeometry x="-560" y="160" width="680" height="70" as="geometry" />
        </mxCell>
        <mxCell id="y1cTeartWdeg5HJ0a6VV-16" style="edgeStyle=orthogonalEdgeStyle;rounded=0;orthogonalLoop=1;jettySize=auto;html=1;entryX=0;entryY=0.5;entryDx=0;entryDy=0;" parent="1" source="y1cTeartWdeg5HJ0a6VV-12" target="y1cTeartWdeg5HJ0a6VV-6" edge="1">
          <mxGeometry relative="1" as="geometry" />
        </mxCell>
        <mxCell id="y1cTeartWdeg5HJ0a6VV-12" value="&lt;div style=&quot;text-align: justify;&quot;&gt;&lt;font style=&quot;font-size: 23px;&quot;&gt;Modele inspirate de creierul uman, capabile de recunoaștere complexă a tiparelor.&lt;/font&gt;&lt;/div&gt;&lt;div style=&quot;text-align: justify;&quot;&gt;&lt;font style=&quot;font-size: 23px;&quot;&gt;Exemple: CNN, RNN, Transformers.&lt;/font&gt;&lt;/div&gt;" style="rounded=0;whiteSpace=wrap;html=1;fillColor=#f8cecc;strokeColor=#b85450;" parent="1" vertex="1">
          <mxGeometry x="-560" y="250" width="680" height="90" as="geometry" />
        </mxCell>
        <mxCell id="y1cTeartWdeg5HJ0a6VV-18" style="edgeStyle=orthogonalEdgeStyle;rounded=0;orthogonalLoop=1;jettySize=auto;html=1;" parent="1" source="y1cTeartWdeg5HJ0a6VV-17" target="y1cTeartWdeg5HJ0a6VV-8" edge="1">
          <mxGeometry relative="1" as="geometry" />
        </mxCell>
        <mxCell id="y1cTeartWdeg5HJ0a6VV-17" value="&lt;div style=&quot;text-align: justify;&quot;&gt;&lt;font style=&quot;font-size: 23px;&quot;&gt;Modele&amp;nbsp;&lt;span style=&quot;background-color: transparent; color: light-dark(rgb(0, 0, 0), rgb(255, 255, 255)); text-align: center;&quot;&gt;capabile să creeze conținut nou, cum ar fi text, imagini, muzică, cod sau videoclipuri, pe baza datelor de antrenare&lt;/span&gt;&lt;span style=&quot;background-color: transparent; color: light-dark(rgb(0, 0, 0), rgb(255, 255, 255)); text-align: center;&quot;&gt;.&lt;/span&gt;&lt;/font&gt;&lt;/div&gt;&lt;div style=&quot;text-align: justify;&quot;&gt;&lt;font style=&quot;font-size: 23px;&quot;&gt;Utilizează modele avansate, cum ar fi &lt;strong style=&quot;&quot; data-end=&quot;243&quot; data-start=&quot;212&quot;&gt;rețele neuronale generative&lt;/strong&gt; (ex. GANs, VAEs) și &lt;strong style=&quot;&quot; data-end=&quot;289&quot; data-start=&quot;264&quot;&gt;modele de limbaj mari&lt;/strong&gt; (ex. GPT, DALL·E, Stable Diffusion).&lt;/font&gt;&lt;/div&gt;" style="rounded=0;whiteSpace=wrap;html=1;fillColor=#fff2cc;strokeColor=#d6b656;" parent="1" vertex="1">
          <mxGeometry x="-560" y="373.12" width="710" height="133.75" as="geometry" />
        </mxCell>
      </root>
    </mxGraphModel>
  </diagram>
</mxfile>
